<svg xmlns="http://www.w3.org/2000/svg" viewBox="0 0 1024 1024" width="1024" height="1024">
	<defs>
		<linearGradient id="bg" x1="0.5" y1="0" x2="0.5" y2="1">
			<stop offset="0" stop-color="#4F53FF" />
			<stop offset="1" stop-color="#2D32FF" />
		</linearGradient>
	</defs>
	<circle cx="512" cy="512" r="512" fill="url(#bg)" />
	<g transform="translate(152, 298) scale(19.5)">
		<path
			fill-rule="evenodd"
			clip-rule="evenodd"
			fill="#fff"
			d="M8.43253 6.89803C9.37662 5.51841 10.1953 4.83625 11.4211 5.21519C12.1629 5.4445 12.4673 6.39138 12.1629 7.57948C11.6275 9.66853 11.4211 10.8677 11.4211 12.2949C13.3041 8.34824 16.7848 3.10279 18.2934 1.33851C19.3361 0.119074 20.8307 0.274584 21.3933 0.546585C22.3075 0.988543 22.3558 1.94685 22.0402 2.86333C19.8571 9.20388 19.7811 12.5903 19.513 15.8802C20.8698 12.2315 22.5194 8.79934 24.5115 6.38214C25.3509 5.22278 26.8219 4.85884 27.7511 5.23546C28.6803 5.61208 28.8921 6.51314 28.6803 7.64229C28.128 10.5868 27.8539 11.9669 27.8539 13.1076C28.8629 12.3359 29.6663 11.6839 31.5031 11.5349C33.3399 11.3859 37.1359 12.1171 37.1359 12.1171C37.1359 12.1171 34.9445 12.4895 33.787 12.7733C31.4142 13.3551 30.5856 14.0356 29.0496 16.2852C28.6033 16.9388 27.8539 17.4407 27.0097 17.3769C26.1654 17.313 25.5985 16.7819 25.3509 16.0646C25.0066 15.0677 24.9043 13.5765 25.3509 10.3495C23.1625 13.6789 22.0402 18.2015 20.5408 21.2007C20.1574 21.9675 19.5027 22.8413 18.6154 22.8413C17.7281 22.8413 16.5774 22.4972 16.428 19.8609C16.0453 13.1076 17.3211 7.73361 17.3211 7.73361C14.8362 11.6736 14.0426 13.9702 13.1783 15.1678C12.3139 16.3654 11.4752 17.4025 10.455 17.3769C9.43478 17.3512 8.84103 16.2107 8.71194 15.1678C8.58284 14.1249 8.54569 12.7929 8.92275 10.3495C7.94125 11.331 7.07823 11.9957 5.53265 12.4119C3.98707 12.8282 2.14146 12.5633 0 12.1171C2.14146 12.1171 5.74519 10.8251 8.43253 6.89803Z"
		/>
	</g>
</svg>
